<svg xmlns="http://www.w3.org/2000/svg" viewBox="0 0 1700 1150" width="1700" height="1150">
<rect width="1700" height="1150" fill="#111013"/>
<text x="90" y="105" font-family="Georgia,serif" font-size="62" font-weight="700" fill="#e8e6e1">1963 – 1991</text>
<text x="90" y="152" font-family="Helvetica,Arial" font-size="28" fill="#8b8781">Then a long, quiet gap · 6 entries</text>
<line x1="90" y1="192" x2="1610" y2="192" stroke="rgba(232,230,225,0.15)" stroke-width="2"/>

<text x="90" y="258" font-family="Helvetica,Arial" font-size="25" font-weight="700" fill="#b8553a" letter-spacing="1.5">26 JUL 1963</text>
<text x="290" y="258" font-family="Georgia,serif" font-size="34" font-weight="600" fill="#e8e6e1">Skopje earthquake</text>
<text x="290" y="292" font-family="Helvetica,Arial" font-size="23" fill="#8b8781">Skopje, then Yugoslavia</text>
<rect x="852.5999999999999" y="234" width="547.4" height="26" fill="#b8553a" rx="3" opacity="0.85"/>
<text x="1416.0" y="257" font-family="Helvetica,Arial" font-size="28" font-weight="600" fill="#e8e6e1">1,070</text>
<text x="90" y="376.3333333333333" font-family="Helvetica,Arial" font-size="25" font-weight="700" fill="#b8553a" letter-spacing="1.5">26 MAY 1983</text>
<text x="290" y="376.3333333333333" font-family="Georgia,serif" font-size="34" font-weight="600" fill="#e8e6e1">Sea of Japan earthquake</text>
<text x="290" y="410.3333333333333" font-family="Helvetica,Arial" font-size="23" fill="#8b8781">Akita and Aomori, Japan</text>
<rect x="852.5999999999999" y="352.3333333333333" width="53.2" height="26" fill="#b8553a" rx="3" opacity="0.85"/>
<text x="921.8" y="375.3333333333333" font-family="Helvetica,Arial" font-size="28" font-weight="600" fill="#e8e6e1">104</text>
<text x="90" y="494.66666666666663" font-family="Helvetica,Arial" font-size="25" font-weight="700" fill="#d9a441" letter-spacing="1.5">26 APR 1986</text>
<text x="290" y="494.66666666666663" font-family="Georgia,serif" font-size="34" font-weight="600" fill="#e8e6e1">Chernobyl nuclear disaster</text>
<text x="290" y="528.6666666666666" font-family="Helvetica,Arial" font-size="23" fill="#8b8781">then-Soviet Ukraine</text>
<rect x="852.5999999999999" y="470.66666666666663" width="15.9" height="26" fill="#d9a441" rx="3" opacity="0.85"/>
<text x="884.5" y="493.66666666666663" font-family="Helvetica,Arial" font-size="28" font-weight="600" fill="#e8e6e1">31</text>
<text x="90" y="613" font-family="Helvetica,Arial" font-size="25" font-weight="700" fill="#b8553a" letter-spacing="1.5">26 NOV 1987</text>
<text x="290" y="613" font-family="Georgia,serif" font-size="34" font-weight="600" fill="#e8e6e1">Pantar earthquake and tsunami</text>
<text x="290" y="647" font-family="Helvetica,Arial" font-size="23" fill="#8b8781">Pantar, Indonesia</text>
<rect x="852.5999999999999" y="589" width="63.9" height="26" fill="#b8553a" rx="3" opacity="0.85"/>
<text x="932.5" y="612" font-family="Helvetica,Arial" font-size="28" font-weight="600" fill="#e8e6e1">125</text>
<text x="90" y="731.3333333333333" font-family="Helvetica,Arial" font-size="25" font-weight="700" fill="#b8553a" letter-spacing="1.5">26 APR 1990</text>
<text x="290" y="731.3333333333333" font-family="Georgia,serif" font-size="34" font-weight="600" fill="#e8e6e1">Gonghe earthquake</text>
<text x="290" y="765.3333333333333" font-family="Helvetica,Arial" font-size="23" fill="#8b8781">Qinghai, China</text>
<rect x="852.5999999999999" y="707.3333333333333" width="51.2" height="26" fill="#b8553a" rx="3" opacity="0.85"/>
<text x="919.8" y="730.3333333333333" font-family="Helvetica,Arial" font-size="28" font-weight="600" fill="#e8e6e1">100</text>
<text x="90" y="849.6666666666666" font-family="Helvetica,Arial" font-size="25" font-weight="700" fill="#d9a441" letter-spacing="1.5">26 MAY 1991</text>
<text x="290" y="849.6666666666666" font-family="Georgia,serif" font-size="34" font-weight="600" fill="#e8e6e1">Lauda Air Flight 004</text>
<text x="290" y="883.6666666666666" font-family="Helvetica,Arial" font-size="23" fill="#8b8781">Thailand</text>
<rect x="852.5999999999999" y="825.6666666666666" width="114.1" height="26" fill="#d9a441" rx="3" opacity="0.85"/>
<text x="982.7" y="848.6666666666666" font-family="Helvetica,Arial" font-size="28" font-weight="600" fill="#e8e6e1">223</text>
<line x1="90" y1="1045" x2="1610" y2="1045" stroke="rgba(232,230,225,0.15)" stroke-width="2"/><rect x="333.2" y="1036" width="836.0" height="18" fill="#d9a441" opacity="0.20" rx="3"/><circle cx="120.4" cy="1045" r="3.5" fill="rgba(232,230,225,0.28)"/><circle cx="150.8" cy="1045" r="3.5" fill="rgba(232,230,225,0.28)"/><circle cx="257.2" cy="1045" r="3.5" fill="rgba(232,230,225,0.28)"/><circle cx="302.8" cy="1045" r="3.5" fill="rgba(232,230,225,0.28)"/><circle cx="318.0" cy="1045" r="3.5" fill="rgba(232,230,225,0.28)"/><circle cx="622.0" cy="1045" r="6" fill="#b8553a"/><circle cx="926.0" cy="1045" r="6" fill="#b8553a"/><circle cx="971.6" cy="1045" r="6" fill="#d9a441"/><circle cx="986.8" cy="1045" r="6" fill="#b8553a"/><circle cx="1032.4" cy="1045" r="6" fill="#b8553a"/><circle cx="1047.6" cy="1045" r="6" fill="#d9a441"/><circle cx="1199.6" cy="1045" r="3.5" fill="rgba(232,230,225,0.28)"/><circle cx="1214.8" cy="1045" r="3.5" fill="rgba(232,230,225,0.28)"/><circle cx="1230.0" cy="1045" r="3.5" fill="rgba(232,230,225,0.28)"/><circle cx="1245.2" cy="1045" r="3.5" fill="rgba(232,230,225,0.28)"/><circle cx="1260.4" cy="1045" r="3.5" fill="rgba(232,230,225,0.28)"/><circle cx="1275.6" cy="1045" r="3.5" fill="rgba(232,230,225,0.28)"/><circle cx="1306.0" cy="1045" r="3.5" fill="rgba(232,230,225,0.28)"/><circle cx="1412.4" cy="1045" r="3.5" fill="rgba(232,230,225,0.28)"/><circle cx="1503.6" cy="1045" r="3.5" fill="rgba(232,230,225,0.28)"/><circle cx="1534.0" cy="1045" r="3.5" fill="rgba(232,230,225,0.28)"/><circle cx="1579.6" cy="1045" r="3.5" fill="rgba(232,230,225,0.28)"/><text x="120.4" y="1083" text-anchor="middle" font-family="Helvetica,Arial" font-size="21" fill="#8b8781">1930</text><text x="424.4" y="1083" text-anchor="middle" font-family="Helvetica,Arial" font-size="21" fill="#8b8781">1950</text><text x="728.4" y="1083" text-anchor="middle" font-family="Helvetica,Arial" font-size="21" fill="#8b8781">1970</text><text x="1032.4" y="1083" text-anchor="middle" font-family="Helvetica,Arial" font-size="21" fill="#8b8781">1990</text><text x="1336.4" y="1083" text-anchor="middle" font-family="Helvetica,Arial" font-size="21" fill="#8b8781">2010</text><text x="1579.6" y="1083" text-anchor="middle" font-family="Helvetica,Arial" font-size="21" fill="#8b8781">2026</text>
<text x="90" y="1122" font-family="Helvetica,Arial" font-size="20" fill="#8b8781">Bar length is linear, scaled to the largest entry shown. Source: PTI, 31 August 2026.</text>
</svg>